<svg width="20" height="20" viewBox="0 0 20 20" fill="none" xmlns="http://www.w3.org/2000/svg">
<path d="M8.3 17.8C9.05 16.2833 10.05 15.2708 11.3 14.7625C12.55 14.2542 13.6167 14 14.5 14C14.8833 14 15.2583 14.0333 15.625 14.1C15.9917 14.1667 16.35 14.25 16.7 14.35C17.1 13.7167 17.4167 13.0333 17.65 12.3C17.8833 11.5667 18 10.8 18 10C18 7.76667 17.225 5.875 15.675 4.325C14.125 2.775 12.2333 2 10 2C7.76667 2 5.875 2.775 4.325 4.325C2.775 5.875 2 7.76667 2 10C2 10.75 2.09583 11.4667 2.2875 12.15C2.47917 12.8333 2.76667 13.4667 3.15 14.05C3.83333 13.7167 4.54167 13.4583 5.275 13.275C6.00833 13.0917 6.75 13 7.5 13C8.03333 13 8.54583 13.0458 9.0375 13.1375C9.52917 13.2292 10.0167 13.35 10.5 13.5C10.1167 13.7 9.75417 13.9333 9.4125 14.2C9.07083 14.4667 8.75 14.75 8.45 15.05C8.25 15.0167 8.07917 15 7.9375 15H7.5C6.96667 15 6.4375 15.0583 5.9125 15.175C5.3875 15.2917 4.88333 15.4667 4.4 15.7C4.93333 16.2333 5.52917 16.6792 6.1875 17.0375C6.84583 17.3958 7.55 17.65 8.3 17.8ZM10 20C8.61667 20 7.31667 19.7375 6.1 19.2125C4.88333 18.6875 3.825 17.975 2.925 17.075C2.025 16.175 1.3125 15.1167 0.7875 13.9C0.2625 12.6833 0 11.3833 0 10C0 8.61667 0.2625 7.31667 0.7875 6.1C1.3125 4.88333 2.025 3.825 2.925 2.925C3.825 2.025 4.88333 1.3125 6.1 0.7875C7.31667 0.2625 8.61667 0 10 0C11.3833 0 12.6833 0.2625 13.9 0.7875C15.1167 1.3125 16.175 2.025 17.075 2.925C17.975 3.825 18.6875 4.88333 19.2125 6.1C19.7375 7.31667 20 8.61667 20 10C20 11.3833 19.7375 12.6833 19.2125 13.9C18.6875 15.1167 17.975 16.175 17.075 17.075C16.175 17.975 15.1167 18.6875 13.9 19.2125C12.6833 19.7375 11.3833 20 10 20ZM7.5 11.5C6.53333 11.5 5.70833 11.1583 5.025 10.475C4.34167 9.79167 4 8.96667 4 8C4 7.03333 4.34167 6.20833 5.025 5.525C5.70833 4.84167 6.53333 4.5 7.5 4.5C8.46667 4.5 9.29167 4.84167 9.975 5.525C10.6583 6.20833 11 7.03333 11 8C11 8.96667 10.6583 9.79167 9.975 10.475C9.29167 11.1583 8.46667 11.5 7.5 11.5ZM7.5 9.5C7.91667 9.5 8.27083 9.35417 8.5625 9.0625C8.85417 8.77083 9 8.41667 9 8C9 7.58333 8.85417 7.22917 8.5625 6.9375C8.27083 6.64583 7.91667 6.5 7.5 6.5C7.08333 6.5 6.72917 6.64583 6.4375 6.9375C6.14583 7.22917 6 7.58333 6 8C6 8.41667 6.14583 8.77083 6.4375 9.0625C6.72917 9.35417 7.08333 9.5 7.5 9.5ZM14.5 12.5C13.8 12.5 13.2083 12.2583 12.725 11.775C12.2417 11.2917 12 10.7 12 10C12 9.3 12.2417 8.70833 12.725 8.225C13.2083 7.74167 13.8 7.5 14.5 7.5C15.2 7.5 15.7917 7.74167 16.275 8.225C16.7583 8.70833 17 9.3 17 10C17 10.7 16.7583 11.2917 16.275 11.775C15.7917 12.2583 15.2 12.5 14.5 12.5Z" fill="#0E0F13"/>
</svg>
