<svg width="18" height="20" viewBox="0 0 18 20" fill="none" xmlns="http://www.w3.org/2000/svg">
<path d="M5.85 11L7.3 9.55C7.5 9.35 7.59583 9.11667 7.5875 8.85C7.57917 8.58333 7.48333 8.35 7.3 8.15C7.1 7.95 6.8625 7.84583 6.5875 7.8375C6.3125 7.82917 6.075 7.925 5.875 8.125L3.7 10.3C3.5 10.5 3.4 10.7333 3.4 11C3.4 11.2667 3.5 11.5 3.7 11.7L5.875 13.875C6.075 14.075 6.3125 14.1708 6.5875 14.1625C6.8625 14.1542 7.1 14.05 7.3 13.85C7.48333 13.65 7.57917 13.4167 7.5875 13.15C7.59583 12.8833 7.5 12.65 7.3 12.45L5.85 11ZM12.15 11L10.7 12.45C10.5 12.65 10.4042 12.8833 10.4125 13.15C10.4208 13.4167 10.5167 13.65 10.7 13.85C10.9 14.05 11.1375 14.1542 11.4125 14.1625C11.6875 14.1708 11.925 14.075 12.125 13.875L14.3 11.7C14.5 11.5 14.6 11.2667 14.6 11C14.6 10.7333 14.5 10.5 14.3 10.3L12.125 8.125C11.925 7.925 11.6875 7.82917 11.4125 7.8375C11.1375 7.84583 10.9 7.95 10.7 8.15C10.5167 8.35 10.4208 8.58333 10.4125 8.85C10.4042 9.11667 10.5 9.35 10.7 9.55L12.15 11ZM2 20C1.45 20 0.979167 19.8042 0.5875 19.4125C0.195833 19.0208 0 18.55 0 18V4C0 3.45 0.195833 2.97917 0.5875 2.5875C0.979167 2.19583 1.45 2 2 2H6.2C6.41667 1.4 6.77917 0.916667 7.2875 0.55C7.79583 0.183333 8.36667 0 9 0C9.63333 0 10.2042 0.183333 10.7125 0.55C11.2208 0.916667 11.5833 1.4 11.8 2H16C16.55 2 17.0208 2.19583 17.4125 2.5875C17.8042 2.97917 18 3.45 18 4V18C18 18.55 17.8042 19.0208 17.4125 19.4125C17.0208 19.8042 16.55 20 16 20H2ZM2 18H16V4H2V18ZM9 3.25C9.21667 3.25 9.39583 3.17917 9.5375 3.0375C9.67917 2.89583 9.75 2.71667 9.75 2.5C9.75 2.28333 9.67917 2.10417 9.5375 1.9625C9.39583 1.82083 9.21667 1.75 9 1.75C8.78333 1.75 8.60417 1.82083 8.4625 1.9625C8.32083 2.10417 8.25 2.28333 8.25 2.5C8.25 2.71667 8.32083 2.89583 8.4625 3.0375C8.60417 3.17917 8.78333 3.25 9 3.25Z" fill="#BBC2D6"/>
</svg>
